<?xml version="1.0" encoding="UTF-8"?>
<svg width="26px" height="27px" viewBox="0 0 26 27" version="1.1" xmlns="http://www.w3.org/2000/svg" xmlns:xlink="http://www.w3.org/1999/xlink">
    <title></title>
    <g id="" stroke="none" stroke-width="1" fill="none" fill-rule="evenodd">
        <g id="" transform="translate(-199.000000, -208.000000)">
            <g id="" transform="translate(199.000000, 208.500000)">
                <circle id="" fill="#FFFFFF" cx="13" cy="13" r="13"></circle>
                <g id="google-2" transform="translate(4.500000, 5.000000)" fill-rule="nonzero">
                    <g id="google">
                        <path d="M3.55743847,8.5 C3.55743847,7.94796727 3.65166543,7.41839257 3.81837464,6.92214267 L0.891540636,4.73429643 C0.303491494,5.90245673 -0.0018826868,7.1923137 0,8.5 C0,9.85327708 0.320380366,11.1297622 0.890090996,12.2628058 L3.81547536,10.0713373 C3.64490091,9.56497892 3.55775373,9.03428886 3.55743847,8.5" id="路径" fill="#FBBC05"></path>
                        <path d="M8.69788096,3.47737152 C9.9228313,3.47737152 11.0296355,3.90190063 11.8994228,4.59737493 L14.4297788,2.12481888 C12.8880809,0.811386693 10.9114894,0 8.69788096,0 C5.26077179,0 2.30639451,1.92342112 0.891540636,4.73429643 L3.8198243,6.92214267 C4.49390939,4.91830734 6.41613916,3.47737152 8.69788096,3.47737152" id="路径" fill="#EA4335"></path>
                        <path d="M8.69788096,13.5226285 C6.41541433,13.5226285 4.49318457,12.0816927 3.81837464,10.0778573 L0.891540636,12.2657036 C2.3056697,15.0765789 5.26004696,17 8.69788096,17 C10.8187121,17 12.8438667,16.2632319 14.3645447,14.8817012 L11.5855745,12.7793403 C10.8020412,13.2625501 9.81483271,13.5226285 8.69715615,13.5226285" id="路径" fill="#34A853"></path>
                        <path d="M17,8.5 C17,7.99795449 16.9202695,7.45678855 16.8021234,6.95474303 L8.69715615,6.95474303 L8.69715615,10.2386858 L13.3621149,10.2386858 C13.1294469,11.3586892 12.4945022,12.2193386 11.5862994,12.7793403 L14.3645447,14.8817012 C15.9613291,13.4313475 17,11.2710304 17,8.5" id="路径" fill="#4285F4"></path>
                    </g>
                </g>
            </g>
        </g>
    </g>
</svg>