<svg width="24" height="24" viewBox="0 0 24 24" fill="none" xmlns="http://www.w3.org/2000/svg">
<g id="icon/currency">
<path id="Subtract" fill-rule="evenodd" clip-rule="evenodd" d="M2.7612 15.8268C2.25866 14.6136 2 13.3132 2 12C2 9.34784 3.05357 6.8043 4.92893 4.92893C6.8043 3.05357 9.34784 2 12 2C14.6522 2 17.1957 3.05357 19.0711 4.92893C20.9464 6.8043 22 9.34784 22 12C22 13.3132 21.7413 14.6136 21.2388 15.8268C20.7362 17.0401 19.9997 18.1425 19.0711 19.0711C18.1425 19.9997 17.0401 20.7362 15.8268 21.2388C14.6136 21.7413 13.3132 22 12 22C10.6868 22 9.38642 21.7413 8.17317 21.2388C6.95991 20.7362 5.85752 19.9997 4.92893 19.0711C4.00035 18.1425 3.26375 17.0401 2.7612 15.8268ZM6.01905 11.9747C6.01905 11.5618 5.68437 11.2271 5.27151 11.2271C4.85866 11.2271 4.52397 11.5618 4.52397 11.9747V17.955L4.529 18.0422C4.57218 18.414 4.88815 18.7025 5.27151 18.7025C5.68437 18.7025 6.01905 18.3679 6.01905 17.955L6.01906 16.4868C6.95856 17.8052 8.31381 18.7685 10.1298 19.2393C12.8439 19.9429 15.0812 19.3012 16.7996 17.8066C17.5343 17.1676 18.0143 16.5249 18.2622 16.0703C18.4599 15.7079 18.3263 15.2538 17.9639 15.0561C17.6015 14.8584 17.1474 14.992 16.9497 15.3544L16.8967 15.4433L16.8097 15.5747L16.6884 15.7432C16.4509 16.0612 16.1608 16.3807 15.8184 16.6785C14.4536 17.8656 12.7136 18.3646 10.505 17.792C8.78133 17.3452 7.61063 16.3794 6.86775 15.0312C6.49784 14.3599 6.25791 13.6342 6.12444 12.9075C6.07777 12.6534 6.0479 12.4185 6.03146 12.2097L6.02301 12.085L6.01905 11.9747ZM14.4981 9.38731C14.6986 9.07461 14.6396 8.6542 14.3468 8.41023C14.0296 8.14593 13.5583 8.18878 13.294 8.50594L11.9994 10.0587L10.7048 8.50594L10.6403 8.43764C10.3689 8.184 9.94473 8.16626 9.65196 8.41023C9.3348 8.67453 9.29195 9.14591 9.55625 9.46307L10.4026 10.4794L9.75676 10.4796L9.66958 10.4846C9.2978 10.5278 9.00922 10.8438 9.00922 11.2271C9.00922 11.64 9.3439 11.9747 9.75676 11.9747L11.2518 11.9745V12.722L9.75676 12.7222L9.66958 12.7272C9.2978 12.7704 9.00922 13.0864 9.00922 13.4698C9.00922 13.8826 9.3439 14.2173 9.75676 14.2173L11.2518 14.2171V15.7124L11.2569 15.7996C11.3001 16.1713 11.616 16.4599 11.9994 16.4599C12.4122 16.4599 12.7469 16.1252 12.7469 15.7124V14.2171L14.242 14.2173L14.3292 14.2123C14.701 14.1691 14.9895 13.8531 14.9895 13.4698C14.9895 13.0569 14.6549 12.7222 14.242 12.7222L12.7469 12.722V11.9745L14.242 11.9747L14.3292 11.9696C14.701 11.9265 14.9895 11.6105 14.9895 11.2271C14.9895 10.8143 14.6549 10.4796 14.242 10.4796L13.5954 10.4794L14.4425 9.46307L14.4981 9.38731ZM17.9805 7.55424C17.1212 6.38077 15.9064 5.47032 14.2996 4.91415C11.616 3.9852 9.26013 4.59231 7.33764 6.15327C6.57581 6.77183 6.05094 7.39273 5.76667 7.82861C5.54115 8.17442 5.63865 8.63759 5.98447 8.86311C6.33028 9.08864 6.79344 8.99114 7.01897 8.64532L7.08321 8.55346L7.18527 8.41985L7.32456 8.24976C7.59372 7.93135 7.91334 7.61167 8.28003 7.31394C9.82967 6.05573 11.6625 5.58341 13.8106 6.32698C15.367 6.86575 16.439 7.78238 17.1272 8.98087C17.5051 9.63903 17.747 10.3487 17.8775 11.0649C17.9602 11.5185 17.9851 11.889 17.9803 12.1328L17.9819 12.2201C18.0108 12.5933 18.3154 12.8938 18.6985 12.9085C19.1111 12.9244 19.4584 12.6028 19.4742 12.1903L19.4758 12.0268L19.4752 11.9832L19.4748 11.9747V5.99434L19.4698 5.90716C19.4266 5.53538 19.1106 5.2468 18.7273 5.2468C18.3144 5.2468 17.9797 5.58149 17.9797 5.99434L17.9805 7.55424Z" fill="#8E90CD"/>
</g>
</svg>
