<svg width="24" height="24" viewBox="0 0 24 24" fill="none" xmlns="http://www.w3.org/2000/svg">
<g id="icon_user_draw_hover.c6e844ae">
<g id="&#195;&#165;&#194;&#155;&#194;&#190;&#195;&#166;&#194;&#160;&#194;&#135;-&#195;&#165;&#194;&#173;&#194;&#152;&#195;&#165;&#194;&#143;&#194;&#150;&#195;&#166;&#194;&#172;&#194;&#190;/&#195;&#165;&#194;&#143;&#194;&#150;&#195;&#166;&#194;&#172;&#194;&#190;&#195;&#165;&#194;&#164;&#194;&#135;&#195;&#164;&#194;&#187;&#194;&#189;">
<path id="&#195;&#169;&#194;&#147;&#194;&#182;&#195;&#168;&#194;&#161;&#194;&#140;&#195;&#165;&#194;&#141;&#194;&#161;" fill-rule="evenodd" clip-rule="evenodd" d="M3.81818 4.27441C2.81403 4.27441 2 5.08845 2 6.09261V17.9473C2 18.9514 2.81403 19.7655 3.81818 19.7655H20.1818C21.186 19.7655 22 18.9514 22 17.9473V6.09261C22 5.08845 21.186 4.27441 20.1818 4.27441H3.81818ZM3.27273 7.00171C3.0719 7.00171 2.90909 7.16453 2.90909 7.36536V8.86031C2.90909 9.06116 3.0719 9.22395 3.27273 9.22395H20.7273C20.9281 9.22395 21.0909 9.06116 21.0909 8.86031V7.36536C21.0909 7.16453 20.9281 7.00171 20.7273 7.00171H3.27273ZM10.7632 15.8389C10.8402 15.6849 10.9976 15.5877 11.1698 15.5877H16.1492C16.4871 15.5877 16.7069 15.9433 16.5558 16.2455L15.8992 17.5586C15.8222 17.7126 15.6648 17.8099 15.4926 17.8099H10.5132C10.1753 17.8099 9.95558 17.4543 10.1067 17.1521L10.7632 15.8389ZM17.8365 15.5877C17.6643 15.5877 17.5069 15.6849 17.4299 15.8389L16.7734 17.1521C16.6222 17.4543 16.842 17.8099 17.1799 17.8099H18.3858C18.5579 17.8099 18.7153 17.7126 18.7923 17.5586L19.4489 16.2455C19.6 15.9433 19.3802 15.5877 19.0423 15.5877H17.8365Z" fill="#8E90CD"/>
</g>
</g>
</svg>
