<svg width="24" height="24" viewBox="0 0 24 24" fill="none" xmlns="http://www.w3.org/2000/svg">
<g id="icon_user_recharge_hover.14daf291">
<g id="&#195;&#165;&#194;&#155;&#194;&#190;&#195;&#166;&#194;&#160;&#194;&#135;-&#195;&#165;&#194;&#173;&#194;&#152;&#195;&#165;&#194;&#143;&#194;&#150;&#195;&#166;&#194;&#172;&#194;&#190;/&#195;&#165;&#194;&#133;&#194;&#133;&#195;&#165;&#194;&#128;&#194;&#188;&#195;&#165;&#194;&#164;&#194;&#135;&#195;&#164;&#194;&#187;&#194;&#189;">
<g id="&#195;&#165;&#194;&#155;&#194;&#190;&#195;&#166;&#194;&#160;&#194;&#135;-&#195;&#165;&#194;&#173;&#194;&#152;&#195;&#165;&#194;&#143;&#194;&#150;&#195;&#166;&#194;&#172;&#194;&#190;/&#195;&#165;&#194;&#133;&#194;&#133;&#195;&#165;&#194;&#128;&#194;&#188;&#195;&#166;&#194;&#169;&#194;&#153;">
<path id="&#195;&#165;&#194;&#189;&#194;&#162;&#195;&#167;&#194;&#138;&#194;&#182;&#195;&#167;&#194;&#187;&#194;&#147;&#195;&#165;&#194;&#144;&#194;&#136;" fill-rule="evenodd" clip-rule="evenodd" d="M3.81818 4.27466C2.81403 4.27466 2 5.0887 2 6.09286V17.9515C2 18.9557 2.81403 19.7697 3.81818 19.7697H20.1818C21.186 19.7697 22 18.9557 22 17.9515V14.0147H15.3501C14.3105 14.0147 13.4678 13.1719 13.4678 12.1323C13.4678 11.0928 14.3105 10.25 15.3501 10.25H22V6.09286C22 5.0887 21.186 4.27466 20.1818 4.27466H3.81818ZM14.8221 11.4564C15.0035 11.2764 15.2268 11.1861 15.4921 11.1861C15.7572 11.1861 15.9806 11.2764 16.1618 11.4564C16.3432 11.6362 16.4339 11.8582 16.4339 12.1216C16.4339 12.3852 16.3432 12.6106 16.1618 12.7976C15.9806 12.9849 15.7572 13.0786 15.4921 13.0786C15.2268 13.0786 15.0035 12.9849 14.8221 12.7976C14.6409 12.6106 14.55 12.3852 14.55 12.1216C14.55 11.8582 14.6409 11.6362 14.8221 11.4564Z" fill="#8E90CD"/>
</g>
</g>
</g>
</svg>
